<svg width="288" height="248" viewBox="0 0 288 248" fill="none" xmlns="http://www.w3.org/2000/svg">
<path d="M72 0C87.1908 0 100.213 4.62387 110.567 13.4933C120.539 22.0363 126.787 33.4461 130.904 45.1161C138.955 67.9318 140.629 97.1823 141.732 123.256C142.901 150.866 143.466 175.177 147.744 193.006C149.851 201.785 152.419 206.892 154.776 209.579C156.464 211.504 158.249 212.571 162 212.571C164.93 212.571 166.234 211.85 167.116 211.153C168.331 210.192 170.062 208.15 171.896 203.939C175.82 194.928 177.815 182.044 180.176 165.777C182.314 151.045 184.822 132.927 191.021 118.689C194.249 111.278 198.988 103.629 206.349 97.8094C214.046 91.7255 223.43 88.5714 234 88.5714C263.953 88.5714 277.284 111.652 282.568 127.252C285.35 135.465 286.684 143.432 287.332 149.17C287.661 152.081 287.826 154.531 287.912 156.298C287.955 157.183 287.97 157.914 287.982 158.443C287.988 158.703 287.998 158.918 288 159.082V159.411C288 159.411 288 159.429 270 159.429H288C288 169.212 279.941 177.143 270 177.143C260.059 177.143 252 169.212 252 159.429C251.999 159.385 252.002 159.313 252 159.221C251.995 158.972 251.975 158.554 251.947 157.993C251.892 156.854 251.777 155.148 251.543 153.08C251.066 148.856 250.149 143.533 248.432 138.462C244.715 127.491 240.044 124 234 124C231.07 124 229.766 124.721 228.884 125.419C227.669 126.38 225.938 128.421 224.104 132.632C220.18 141.643 218.185 154.528 215.824 170.794C213.686 185.526 211.178 203.644 204.979 217.882C201.751 225.294 197.012 232.943 189.651 238.762C181.954 244.846 172.57 248 162 248C147.751 248 136.036 242.424 127.529 232.725C119.691 223.787 115.367 212.281 112.693 201.137C107.41 179.111 106.848 150.273 105.768 124.744C104.621 97.6783 102.92 73.78 96.9084 56.7411C93.9951 48.4837 90.5382 43.2842 86.9414 40.2031C83.7248 37.4476 79.3092 35.4286 72 35.4286C65.5723 35.4286 60.314 38.2045 55.1777 44.9431C49.6613 52.1816 45.3276 62.8568 42.205 75.1475C39.146 87.1897 37.5697 99.4604 36.7735 108.863C36.3786 113.526 36.1848 117.403 36.0879 120.073C36.0397 121.401 36.029 122.428 36.0175 123.1C36.0119 123.438 36.0013 123.693 36 123.844V124C36 133.784 27.9411 141.714 18 141.714C8.05887 141.714 0 133.784 0 124H18L0 123.982V123.55C0.00205322 123.3 0.0101304 122.952 0.0175781 122.512C0.0325323 121.629 0.065962 120.366 0.123047 118.793C0.237176 115.651 0.465492 111.22 0.914058 105.923C1.80524 95.3976 3.60468 81.0951 7.29492 66.5669C10.922 52.2888 16.7156 36.3885 26.3848 23.6998C36.4352 10.5118 51.4286 0 72 0Z" fill="white"/>
</svg>
